<svg width="938" height="263" viewBox="0 0 938 263" fill="none" xmlns="http://www.w3.org/2000/svg">
<path fill-rule="evenodd" clip-rule="evenodd" d="M904.23 162.451C904.23 162.773 904.007 163.033 903.73 163.033C895.966 163.033 891.826 165.033 885.209 168.23C884.692 168.48 884.16 168.737 883.609 169.001C882.687 169.443 881.638 169.17 880.589 168.543C879.529 167.91 878.373 166.859 877.167 165.544C874.752 162.908 872.05 159.11 869.411 155.133C867.642 152.467 865.891 149.703 864.268 147.142C863.471 145.884 862.704 144.674 861.982 143.55C860.884 141.839 859.888 140.324 859.035 139.121C858.174 137.905 857.486 137.046 857.001 136.614C844.034 125.059 825.915 134.468 822.811 150.742C822.047 154.751 821.222 157.763 820.324 159.971C819.427 162.176 818.439 163.627 817.326 164.451C815.053 166.134 812.529 165.034 809.961 163.427C809.196 162.948 808.417 162.418 807.619 161.876C805.656 160.541 803.578 159.127 801.296 158.195C798.136 156.904 794.665 156.581 790.79 158.839C789.607 159.528 787.941 161.173 786.073 163.317C784.221 165.444 782.215 168.007 780.361 170.474C778.509 172.936 776.813 175.295 775.573 177.018L775.568 177.025C774.949 177.886 774.442 178.591 774.088 179.069C773.913 179.306 773.769 179.496 773.665 179.622C773.617 179.681 773.563 179.744 773.512 179.792L773.51 179.794C773.494 179.81 773.431 179.87 773.345 179.908C773.311 179.923 773.161 179.987 772.983 179.909C772.746 179.804 772.674 179.558 772.661 179.43C772.042 173.66 769.263 167.438 765.351 162.892C761.436 158.344 756.463 155.557 751.47 156.452C743.392 157.9 738.725 163.582 734.836 170.418C733.592 172.605 732.442 174.883 731.283 177.176C730.62 178.49 729.954 179.808 729.267 181.117C727.392 184.688 725.378 188.145 722.893 191.041C722.585 191.4 722.243 191.629 721.867 191.712C721.492 191.794 721.132 191.72 720.802 191.565C720.165 191.264 719.567 190.622 719.037 189.971C718.765 189.637 718.497 189.282 718.239 188.94L718.236 188.937C717.977 188.593 717.728 188.264 717.486 187.967C717.242 187.668 717.015 187.414 716.803 187.221C716.588 187.025 716.414 186.915 716.276 186.869C714.4 186.244 711.882 186.101 709.327 186.263C706.781 186.424 704.243 186.886 702.349 187.437C699.31 188.323 695.452 190.652 691.145 193.62C688.807 195.232 686.375 197.003 683.888 198.814C681.78 200.349 679.632 201.913 677.469 203.433C672.785 206.724 668.089 209.76 663.804 211.651C659.536 213.533 655.571 214.327 652.405 212.967C649.983 211.928 647.846 210.817 645.835 209.742C645.482 209.553 645.133 209.365 644.788 209.179C643.16 208.304 641.604 207.467 640.012 206.717C636.172 204.906 632.151 203.611 626.624 203.611C624.083 203.611 622.648 204.243 621.697 205.027C621.216 205.423 620.84 205.873 620.497 206.341C620.347 206.545 620.206 206.749 620.063 206.956L619.996 207.053C619.832 207.29 619.663 207.531 619.486 207.761C619.13 208.221 618.722 208.656 618.187 208.968C617.649 209.282 617.013 209.455 616.219 209.447C614.655 209.431 612.435 208.715 609.011 206.942C603.897 204.293 599.306 200.052 594.771 195.652C594.241 195.138 593.712 194.622 593.183 194.105C589.166 190.186 585.146 186.265 580.75 183.241C579.311 182.252 576.769 180.093 573.557 177.365C572.437 176.415 571.237 175.395 569.973 174.332C565.062 170.2 559.161 165.374 553.258 161.253C547.345 157.126 541.473 153.738 536.614 152.446C534.186 151.799 532.054 151.689 530.313 152.231C528.592 152.767 527.229 153.947 526.314 155.961C523.557 162.03 523.753 168.712 523.952 175.537C523.968 176.07 523.984 176.603 523.998 177.138C524.193 184.455 524.121 191.867 519.819 198.313C513.827 207.291 509.608 218.397 509.608 230.079C509.608 233.049 508.865 241.849 507.749 249.528C507.191 253.367 506.535 256.964 505.821 259.427C505.468 260.644 505.083 261.654 504.653 262.27C504.439 262.578 504.167 262.855 503.828 262.954C503.454 263.063 503.106 262.926 502.823 262.65C500.099 260.005 495.562 258.696 490.074 258.049C485.378 257.495 480.079 257.432 474.781 257.369C473.911 257.359 473.04 257.349 472.172 257.336C466.044 257.248 460.048 257.051 455.232 255.953C450.445 254.862 446.634 252.839 445.137 248.914C444.207 246.475 443.818 244.117 443.549 241.975C443.487 241.483 443.432 241.006 443.378 240.544C443.195 238.966 443.032 237.559 442.697 236.302C442.274 234.718 441.591 233.438 440.269 232.488C438.924 231.52 436.868 230.859 433.639 230.661C429.062 230.38 425.962 229.433 423.859 227.824C421.73 226.194 420.681 223.932 420.125 221.2C419.646 218.845 419.524 216.09 419.389 213.057C419.37 212.619 419.35 212.174 419.329 211.725C419.161 208.139 418.906 204.142 418.025 199.78C417.883 199.078 417.739 198.037 417.574 196.856C417.526 196.511 417.477 196.154 417.425 195.79C417.193 194.159 416.915 192.352 416.549 190.712C416.179 189.056 415.733 187.638 415.19 186.743C414.92 186.3 414.652 186.029 414.394 185.898C414.153 185.776 413.878 185.757 413.535 185.912C405.216 189.682 396.66 192.321 388.08 194.967L387.528 195.138C380.748 197.229 376.094 198.36 372.809 198.528C369.506 198.697 367.48 197.895 366.086 195.994C365.407 195.067 364.903 193.912 364.462 192.568C364.022 191.227 363.633 189.66 363.2 187.899L363.146 187.678C362.288 184.185 361.227 179.865 359.218 174.715C357.481 170.26 355.071 167.207 352.321 164.473C351.09 163.249 349.796 162.093 348.459 160.9C348.298 160.756 348.137 160.612 347.975 160.467C346.47 159.122 344.92 157.717 343.382 156.123C342.264 154.966 340.503 153.753 338.431 152.466C337.522 151.901 336.537 151.313 335.531 150.711C334.296 149.973 333.027 149.215 331.824 148.456C329.614 147.062 327.498 145.59 325.887 144.029C324.29 142.482 323.099 140.762 322.906 138.849C322.518 135.004 321.212 133.232 319.54 132.592C317.794 131.924 315.48 132.412 312.961 133.584C307.949 135.915 302.559 140.737 300.341 142.805C297.635 145.327 294.959 147.787 292.317 150.213C272.973 167.987 255.536 184.008 242.752 210.08L242.656 210.275C241.484 212.668 237.415 220.977 233.471 226.329C232.454 227.709 231.431 228.912 230.455 229.771C229.493 230.616 228.504 231.192 227.568 231.169C226.565 231.144 225.771 230.443 225.225 229.147C224.691 227.879 224.36 225.977 224.247 223.345C223.909 215.446 221.415 207.001 218.193 198.8C215.676 192.394 212.731 186.176 210.045 180.506C209.293 178.918 208.561 177.373 207.865 175.879C194.749 147.736 180.209 118.74 157.401 100.184C155.746 98.8381 154.266 97.665 152.925 96.6011C149.35 93.7668 146.752 91.7067 144.415 89.2096C141.177 85.7513 138.434 81.4577 134.205 73.1402C133.892 72.526 133.579 71.9073 133.264 71.2855C128.948 62.772 124.336 53.6749 118.65 47.4011C115.608 44.0444 112.28 41.523 108.553 40.3316C104.833 39.1425 100.678 39.2664 95.956 41.2673C94.3113 41.9642 92.5519 43.3781 90.7615 45.2509C88.9761 47.1185 87.1868 49.4137 85.4802 51.835C82.6954 55.7857 80.155 60.0363 78.2247 63.266C77.7872 63.9979 77.3811 64.6775 77.0106 65.2892C63.226 88.0462 45.5637 105.791 27.6933 123.745C24.8156 126.636 21.9325 129.533 19.0593 132.457C18.8513 132.669 18.5355 132.644 18.3538 132.401C18.1722 132.159 18.1936 131.791 18.4016 131.579C21.2834 128.646 24.1719 125.744 27.0521 122.85C44.9269 104.89 62.4857 87.2477 76.1936 64.6171C76.5588 64.0142 76.9609 63.3414 77.3954 62.6143C79.3254 59.385 81.8946 55.0859 84.7074 51.0953C86.4318 48.649 88.2567 46.3051 90.0936 44.3837C91.9254 42.4675 93.7962 40.9425 95.6143 40.1721C100.512 38.0965 104.879 37.949 108.818 39.2078C112.749 40.4644 116.216 43.1104 119.338 46.5549C125.131 52.9471 129.812 62.1827 134.107 70.6579C134.428 71.2921 134.748 71.922 135.065 72.5461C139.279 80.8335 141.963 85.0093 145.091 88.3505C147.371 90.7867 149.886 92.7808 153.429 95.5903C154.779 96.6614 156.279 97.8511 157.973 99.2289C180.999 117.962 195.636 147.197 208.744 175.323C209.433 176.802 210.16 178.337 210.909 179.919C213.597 185.594 216.568 191.865 219.102 198.315C222.343 206.563 224.898 215.167 225.246 223.287C225.357 225.865 225.678 227.578 226.123 228.634C226.555 229.66 227.064 229.991 227.589 230.004C228.181 230.019 228.942 229.641 229.853 228.841C230.748 228.053 231.718 226.919 232.712 225.57C236.59 220.307 240.62 212.08 241.793 209.686L241.884 209.502C254.771 183.22 272.367 167.055 291.703 149.293C294.344 146.867 297.018 144.411 299.716 141.895C301.932 139.829 307.425 134.904 312.59 132.502C315.159 131.307 317.757 130.683 319.852 131.485C322.02 132.314 323.483 134.594 323.899 138.713C324.046 140.164 324.98 141.634 326.526 143.132C328.057 144.616 330.101 146.044 332.3 147.431C333.519 148.2 334.749 148.934 335.959 149.657C336.958 150.254 337.945 150.843 338.901 151.438C340.969 152.723 342.829 153.992 344.046 155.252C345.555 156.816 347.08 158.198 348.583 159.543C348.745 159.687 348.907 159.832 349.069 159.976C350.402 161.167 351.718 162.341 352.97 163.587C355.788 166.388 358.31 169.571 360.128 174.232C362.168 179.462 363.246 183.851 364.105 187.347L364.161 187.578C364.597 189.35 364.974 190.866 365.396 192.152C365.818 193.437 366.272 194.453 366.847 195.237C367.959 196.755 369.619 197.525 372.765 197.364C375.93 197.202 380.489 196.104 387.272 194.011L387.801 193.848C396.398 191.196 404.906 188.572 413.172 184.826C413.74 184.569 414.289 184.575 414.792 184.829C415.278 185.074 415.676 185.528 416.006 186.07C416.66 187.146 417.142 188.739 417.517 190.418C417.895 192.113 418.179 193.964 418.411 195.599C418.466 195.982 418.517 196.351 418.566 196.703C418.729 197.874 418.866 198.854 418.999 199.513C419.9 203.979 420.159 208.06 420.328 211.661C420.349 212.117 420.369 212.563 420.388 213.001C420.524 216.052 420.641 218.687 421.098 220.931C421.613 223.461 422.549 225.427 424.408 226.85C426.293 228.292 429.183 229.221 433.691 229.497C436.993 229.7 439.243 230.38 440.794 231.496C442.369 232.629 443.176 234.173 443.651 235.956C444.014 237.316 444.192 238.853 444.377 240.451C444.429 240.899 444.481 241.351 444.539 241.806C444.803 243.913 445.176 246.146 446.051 248.44C447.332 251.8 450.68 253.728 455.424 254.809C460.138 255.884 466.044 256.083 472.185 256.171C473.048 256.183 473.915 256.193 474.784 256.204C480.078 256.266 485.43 256.329 490.174 256.889C495.677 257.539 500.488 258.866 503.463 261.755C503.557 261.846 503.585 261.824 503.586 261.823C503.621 261.813 503.722 261.758 503.877 261.536C504.186 261.092 504.526 260.255 504.873 259.054C505.561 256.682 506.207 253.161 506.763 249.333C507.876 241.679 508.608 232.953 508.608 230.079C508.608 218.071 512.941 206.721 519.03 197.598C523.089 191.516 523.194 184.503 522.998 177.174C522.984 176.626 522.967 176.076 522.951 175.525C522.75 168.762 522.543 161.773 525.431 155.415C526.48 153.105 528.074 151.722 530.055 151.105C532.014 150.495 534.326 150.641 536.837 151.309C541.856 152.645 547.841 156.114 553.772 160.254C559.713 164.401 565.643 169.251 570.559 173.387C571.85 174.474 573.068 175.508 574.198 176.467C577.387 179.175 579.864 181.279 581.258 182.238C585.73 185.313 589.817 189.301 593.826 193.213C594.355 193.729 594.883 194.245 595.411 194.756C599.95 199.16 604.445 203.302 609.417 205.877C612.82 207.639 614.881 208.268 616.227 208.282C616.887 208.288 617.362 208.146 617.739 207.926C618.12 207.704 618.431 207.384 618.743 206.98C618.9 206.777 619.054 206.558 619.218 206.322C619.379 206.088 619.552 205.836 619.736 205.584C620.109 205.076 620.546 204.548 621.12 204.075C622.281 203.119 623.932 202.445 626.624 202.445C632.307 202.445 636.456 203.783 640.387 205.637C642.003 206.399 643.586 207.25 645.214 208.125C645.558 208.31 645.904 208.496 646.252 208.683C648.257 209.755 650.366 210.85 652.75 211.874C655.563 213.082 659.235 212.42 663.45 210.561C667.646 208.71 672.277 205.72 676.952 202.435C679.075 200.944 681.221 199.382 683.334 197.843C685.843 196.016 688.307 194.222 690.636 192.617C694.939 189.652 698.91 187.238 702.106 186.307C704.066 185.736 706.667 185.265 709.273 185.1C711.871 184.935 714.518 185.072 716.551 185.748C716.863 185.852 717.155 186.062 717.419 186.303C717.687 186.547 717.952 186.847 718.211 187.164C718.466 187.478 718.726 187.821 718.981 188.159L718.989 188.17C719.25 188.515 719.506 188.854 719.762 189.169C720.288 189.815 720.758 190.287 721.177 190.484C721.374 190.577 721.538 190.598 721.682 190.567C721.823 190.535 721.992 190.443 722.186 190.217C724.586 187.42 726.551 184.057 728.414 180.509C729.082 179.237 729.739 177.935 730.4 176.628C731.569 174.313 732.746 171.982 734.003 169.774C737.957 162.823 742.833 156.821 751.318 155.3C756.737 154.328 762.011 157.366 766.057 162.067C769.839 166.461 772.616 172.382 773.496 178.085C773.83 177.628 774.273 177.013 774.802 176.277L774.808 176.268C776.047 174.545 777.75 172.177 779.608 169.705C781.47 167.23 783.493 164.643 785.372 162.487C787.235 160.348 789.002 158.578 790.343 157.797C794.514 155.367 798.275 155.725 801.627 157.095C804.005 158.067 806.219 159.572 808.211 160.927C808.987 161.454 809.729 161.959 810.435 162.401C813.034 164.028 815.052 164.754 816.79 163.468C817.682 162.807 818.566 161.574 819.42 159.472C820.274 157.374 821.079 154.456 821.835 150.489C825.087 133.438 844.024 123.583 857.608 135.688C858.194 136.211 858.946 137.165 859.806 138.379C860.675 139.605 861.682 141.138 862.783 142.851C863.512 143.988 864.283 145.203 865.082 146.465C866.701 149.02 868.44 151.764 870.202 154.42C872.836 158.39 875.498 162.126 877.85 164.693C879.028 165.978 880.106 166.945 881.045 167.507C881.995 168.074 882.709 168.173 883.229 167.923C883.783 167.658 884.319 167.398 884.841 167.146C891.46 163.948 895.763 161.868 903.73 161.868C904.007 161.868 904.23 162.129 904.23 162.451Z" fill="black"/>
<path d="M73.8174 10.6272H76.605C78.2954 10.6272 79.0589 9.6464 79.0589 8.34697C79.0589 7.03513 78.2705 6.29437 77.5496 6.24885V6.16608C78.2172 5.96744 78.7748 5.43774 78.7748 4.37833C78.7748 3.12442 78.029 2.15192 76.4807 2.15192H73.8174V10.6272ZM74.9147 9.53053V6.8158H76.5376C77.4182 6.8158 77.9687 7.47793 77.9687 8.2849C77.9687 8.99669 77.5532 9.53053 76.4985 9.53053H74.9147ZM74.9147 5.81846V3.2403H76.4133C77.2833 3.2403 77.6988 3.77414 77.6988 4.47765C77.6988 5.29704 77.1235 5.81846 76.3849 5.81846H74.9147Z" fill="black"/>
<path d="M81.8604 10.6272H86.4626V9.52639H82.9577V6.93167H86.1821V5.83502H82.9577V3.25271H86.42V2.15192H81.8604V10.6272Z" fill="black"/>
<path d="M88.8353 10.6272H89.1478C90.8026 10.6272 91.2004 9.19533 91.2963 6.47232L91.4099 3.23616H93.8921V10.6272H94.9752V2.15192H90.3765L90.2522 6.13298C90.1741 8.58699 89.9184 9.48501 89.0484 9.50984L88.8353 9.51811V10.6272Z" fill="black"/>
<path d="M98.0732 2.15192V10.6272H99.0818L102.779 4.41144H102.846V10.6272H103.943V2.15192H102.928L99.2274 8.37594H99.1599V2.15192H98.0732Z" fill="black"/>
<path d="M111.351 10.6272H112.69L109.69 5.984L112.708 2.15192H111.348L108.518 5.73156H108.141V2.15192H107.044V10.6272H108.141V6.82821H108.894L111.351 10.6272Z" fill="black"/>
<path d="M115.302 2.15192V10.6272H116.31L120.007 4.41144H120.074V10.6272H121.172V2.15192H120.156L116.456 8.37594H116.388V2.15192H115.302Z" fill="black"/>
<path d="M124.272 2.15192V10.6272H125.281L128.978 4.41144H129.045V10.6272H130.142V2.15192H129.127L125.427 8.37594H125.359V2.15192H124.272ZM127.905 0C127.905 0.41797 127.706 0.786279 127.209 0.786279C126.705 0.786279 126.517 0.413831 126.517 0H125.647C125.647 0.93112 126.254 1.57256 127.209 1.57256C128.172 1.57256 128.779 0.93112 128.779 0H127.905Z" fill="black"/>
<path d="M69.2686 24.6114H70.3659V20.9158H73.9916V24.6114H75.0924V16.1361H73.9916V19.8192H70.3659V16.1361H69.2686V24.6114Z" fill="black"/>
<path d="M84.5079 20.3737C84.5079 17.6631 83.1159 16.0202 81.2338 16.0202C79.3446 16.0202 77.9561 17.6631 77.9561 20.3737C77.9561 23.0802 79.3446 24.7272 81.2338 24.7272C83.1159 24.7272 84.5079 23.0843 84.5079 20.3737ZM83.4213 20.3737C83.4213 22.4387 82.4838 23.5602 81.2338 23.5602C79.9802 23.5602 79.0463 22.4387 79.0463 20.3737C79.0463 18.3087 79.9802 17.1872 81.2338 17.1872C82.4838 17.1872 83.4213 18.3087 83.4213 20.3737Z" fill="black"/>
<path d="M87.376 24.6114H90.1636C91.854 24.6114 92.6175 23.6306 92.6175 22.3311C92.6175 21.0193 91.8291 20.2785 91.1082 20.233V20.1503C91.7758 19.9516 92.3334 19.4219 92.3334 18.3625C92.3334 17.1086 91.5876 16.1361 90.0393 16.1361H87.376V24.6114ZM88.4733 23.5147V20.8H90.0961C90.9768 20.8 91.5273 21.4621 91.5273 22.2691C91.5273 22.9809 91.1118 23.5147 90.0571 23.5147H88.4733ZM88.4733 19.8026V17.2245H89.9719C90.8419 17.2245 91.2574 17.7583 91.2574 18.4618C91.2574 19.2812 90.6821 19.8026 89.9434 19.8026H88.4733Z" fill="black"/>
<path d="M99.9537 16.1361H95.4189V24.6114H96.5162V17.2369H99.9537V16.1361Z" fill="black"/>
<path d="M108.705 20.3737C108.705 17.6631 107.313 16.0202 105.431 16.0202C103.542 16.0202 102.153 17.6631 102.153 20.3737C102.153 23.0802 103.542 24.7272 105.431 24.7272C107.313 24.7272 108.705 23.0843 108.705 20.3737ZM107.619 20.3737C107.619 22.4387 106.681 23.5602 105.431 23.5602C104.177 23.5602 103.244 22.4387 103.244 20.3737C103.244 18.3087 104.177 17.1872 105.431 17.1872C106.681 17.1872 107.619 18.3087 107.619 20.3737Z" fill="black"/>
<path d="M111.573 24.6114H112.671V21.6318H114.162C115.849 21.6318 116.683 20.4441 116.683 18.8798C116.683 17.3197 115.856 16.1361 114.166 16.1361H111.573V24.6114ZM112.671 20.5475V17.2328H114.048C115.135 17.2328 115.579 17.9197 115.579 18.8798C115.579 19.8399 115.135 20.5475 114.063 20.5475H112.671Z" fill="black"/>
<path d="M125.787 20.3737C125.787 17.6631 124.395 16.0202 122.513 16.0202C120.624 16.0202 119.235 17.6631 119.235 20.3737C119.235 23.0802 120.624 24.7272 122.513 24.7272C124.395 24.7272 125.787 23.0843 125.787 20.3737ZM124.701 20.3737C124.701 22.4387 123.763 23.5602 122.513 23.5602C121.26 23.5602 120.326 22.4387 120.326 20.3737C120.326 18.3087 121.26 17.1872 122.513 17.1872C123.763 17.1872 124.701 18.3087 124.701 20.3737Z" fill="black"/>
<path d="M128.105 26.6598H129.156V24.6114H134.039V26.6474H135.09V23.5271H134.266V16.1361H129.781L129.611 19.7157C129.5 22.0746 129.071 23.0471 128.584 23.5271H128.105V26.6598ZM129.877 23.5271C130.292 22.7533 130.573 21.5076 130.662 19.7157L130.775 17.2369H133.215V23.5271H129.877Z" fill="black"/>
<path d="M5.6108 145.488H0V153.963H1.09375V146.58H4.51705V153.963H5.6108V145.488Z" fill="black"/>
<path d="M14.8292 148.244C14.5806 146.431 13.3626 145.372 11.8249 145.372C9.94283 145.372 8.55433 147.015 8.55433 149.725C8.55433 152.436 9.93572 154.079 11.8249 154.079C13.4229 154.079 14.5913 152.912 14.8292 151.236L13.7212 151.232C13.533 152.316 12.7518 152.912 11.832 152.912C10.5856 152.912 9.64453 151.799 9.64453 149.725C9.64453 147.669 10.582 146.539 11.8356 146.539C12.7624 146.539 13.5401 147.147 13.7212 148.244H14.8292Z" fill="black"/>
<path d="M21.9498 153.963H23.2885L20.2878 149.32L23.3063 145.488H21.9462L19.1159 149.067H18.7395V145.488H17.6422V153.963H18.7395V150.164H19.4924L21.9498 153.963Z" fill="black"/>
<path d="M31.8562 149.725C31.8562 147.015 30.4641 145.372 28.582 145.372C26.6928 145.372 25.3043 147.015 25.3043 149.725C25.3043 152.432 26.6928 154.079 28.582 154.079C30.4641 154.079 31.8562 152.436 31.8562 149.725ZM30.7695 149.725C30.7695 151.79 29.832 152.912 28.582 152.912C27.3285 152.912 26.3945 151.79 26.3945 149.725C26.3945 147.66 27.3285 146.539 28.582 146.539C29.832 146.539 30.7695 147.66 30.7695 149.725Z" fill="black"/>
<path d="M34.7243 153.963H37.5119C39.2022 153.963 39.9657 152.982 39.9657 151.683C39.9657 150.371 39.1774 149.63 38.4565 149.585V149.502C39.1241 149.303 39.6816 148.774 39.6816 147.714C39.6816 146.46 38.9359 145.488 37.3876 145.488H34.7243V153.963ZM35.8216 152.866V150.152H37.4444C38.3251 150.152 38.8755 150.814 38.8755 151.621C38.8755 152.332 38.46 152.866 37.4054 152.866H35.8216ZM35.8216 149.154V146.576H37.3201C38.1902 146.576 38.6056 147.11 38.6056 147.813C38.6056 148.633 38.0304 149.154 37.2917 149.154H35.8216Z" fill="black"/>
<path d="M163.212 178.051H165.478V185.426H166.571V178.051H168.84V176.95H163.212V178.051Z" fill="black"/>
<path d="M171.584 185.426H174.372C176.062 185.426 176.826 184.445 176.826 183.145C176.826 181.834 176.037 181.093 175.316 181.047V180.965C175.984 180.766 176.542 180.236 176.542 179.177C176.542 177.923 175.796 176.95 174.248 176.95H171.584V185.426ZM172.682 184.329V181.614H174.304C175.185 181.614 175.736 182.276 175.736 183.083C175.736 183.795 175.32 184.329 174.265 184.329H172.682ZM172.682 180.617V178.039H174.18C175.05 178.039 175.466 178.573 175.466 179.276C175.466 180.096 174.89 180.617 174.152 180.617H172.682Z" fill="black"/>
<path d="M179.627 185.426H184.229V184.325H180.725V181.73H183.949V180.634H180.725V178.051H184.187V176.95H179.627V185.426Z" fill="black"/>
<path d="M187.153 185.426H188.25V182.446H189.741C191.428 182.446 192.263 181.258 192.263 179.694C192.263 178.134 191.435 176.95 189.745 176.95H187.153V185.426ZM188.25 181.362V178.047H189.628C190.714 178.047 191.158 178.734 191.158 179.694C191.158 180.654 190.714 181.362 189.642 181.362H188.25Z" fill="black"/>
<path d="M196.157 180.369V176.95H195.056V185.426H197.78C199.399 185.426 200.326 184.375 200.323 182.856C200.326 181.341 199.399 180.369 197.78 180.369H196.157ZM196.157 181.445H197.78C198.721 181.445 199.239 182.074 199.239 182.839C199.239 183.626 198.721 184.35 197.78 184.35H196.157V181.445Z" fill="black"/>
<path d="M261.381 211.064V202.589H258.789C257.102 202.589 256.271 203.685 256.271 205.245C256.271 206.383 256.715 207.248 257.606 207.633L255.994 211.064H257.244L258.721 207.857C258.746 207.857 258.768 207.857 258.792 207.857H260.284V211.064H261.381ZM260.284 206.756H258.892C257.823 206.756 257.376 206.201 257.376 205.245C257.376 204.285 257.823 203.685 258.906 203.685H260.284V206.756Z" fill="black"/>
<path d="M264.476 211.064H265.573V208.084H267.064C268.751 208.084 269.586 206.897 269.586 205.332C269.586 203.772 268.758 202.589 267.068 202.589H264.476V211.064ZM265.573 207V203.685H266.951C268.037 203.685 268.481 204.372 268.481 205.332C268.481 206.292 268.037 207 266.965 207H265.573Z" fill="black"/>
<path d="M278.69 206.826C278.69 204.116 277.298 202.473 275.415 202.473C273.526 202.473 272.138 204.116 272.138 206.826C272.138 209.533 273.526 211.18 275.415 211.18C277.298 211.18 278.69 209.537 278.69 206.826ZM277.603 206.826C277.603 208.891 276.665 210.013 275.415 210.013C274.162 210.013 273.228 208.891 273.228 206.826C273.228 204.761 274.162 203.64 275.415 203.64C276.665 203.64 277.603 204.761 277.603 206.826Z" fill="black"/>
<path d="M287.598 205.345C287.35 203.532 286.132 202.473 284.594 202.473C282.712 202.473 281.323 204.116 281.323 206.826C281.323 209.537 282.705 211.18 284.594 211.18C286.192 211.18 287.36 210.013 287.598 208.337L286.49 208.333C286.302 209.417 285.521 210.013 284.601 210.013C283.355 210.013 282.414 208.899 282.414 206.826C282.414 204.769 283.351 203.64 284.605 203.64C285.531 203.64 286.309 204.248 286.49 205.345H287.598Z" fill="black"/>
<path d="M289.861 211.064H290.173C291.828 211.064 292.226 209.632 292.322 206.909L292.435 203.673H294.918V211.064H296.001V202.589H291.402L291.278 206.57C291.2 209.024 290.944 209.922 290.074 209.946L289.861 209.955V211.064Z" fill="black"/>
<path d="M299.713 211.064L300.381 208.821H303.222L303.886 211.064H305.05L302.433 202.589H301.165L298.548 211.064H299.713ZM300.7 207.745L301.773 204.128H301.83L302.902 207.745H300.7Z" fill="black"/>
<path d="M307.601 211.064H310.388C312.079 211.064 312.842 210.083 312.842 208.784C312.842 207.472 312.054 206.731 311.333 206.685V206.603C312.001 206.404 312.558 205.874 312.558 204.815C312.558 203.561 311.812 202.589 310.264 202.589H307.601V211.064ZM308.698 209.967V207.252H310.321C311.202 207.252 311.752 207.915 311.752 208.722C311.752 209.433 311.336 209.967 310.282 209.967H308.698ZM308.698 206.255V203.677H310.197C311.067 203.677 311.482 204.211 311.482 204.914C311.482 205.734 310.907 206.255 310.168 206.255H308.698Z" fill="black"/>
<path d="M315.093 211.064H315.406C317.061 211.064 317.458 209.632 317.554 206.909L317.668 203.673H320.15V211.064H321.233V202.589H316.634L316.51 206.57C316.432 209.024 316.176 209.922 315.306 209.946L315.093 209.955V211.064Z" fill="black"/>
<path d="M325.439 206.007V202.589H324.338V211.064H327.062C328.681 211.064 329.608 210.013 329.605 208.494C329.608 206.979 328.681 206.007 327.062 206.007H325.439ZM325.439 207.083H327.062C328.003 207.083 328.521 207.712 328.521 208.477C328.521 209.264 328.003 209.988 327.062 209.988H325.439V207.083Z" fill="black"/>
<path d="M339.532 132.668V141.143H340.576V135.006H340.644L342.789 141.131H343.655L345.8 135.01H345.867V141.143H346.911V132.668H345.58L343.264 139.256H343.179L340.864 132.668H339.532Z" fill="black"/>
<path d="M350.807 141.143L351.474 138.9H354.315L354.979 141.143H356.144L353.527 132.668H352.259L349.642 141.143H350.807ZM351.794 137.824L352.866 134.208H352.923L353.996 137.824H351.794Z" fill="black"/>
<path d="M358.694 141.143H359.792V137.448H363.417V141.143H364.518V132.668H363.417V136.351H359.792V132.668H358.694V141.143Z" fill="black"/>
<path d="M367.258 133.769H369.523V141.143H370.617V133.769H372.886V132.668H367.258V133.769Z" fill="black"/>
<path d="M376.145 141.259H376.642C377.778 141.259 378.155 140.518 378.474 139.674L380.989 132.668H379.838L378.141 137.568L376.234 132.668H375.069L377.626 139.029L377.523 139.331C377.366 139.774 377.125 140.134 376.582 140.134H376.145V141.259Z" fill="black"/>
<path d="M383.526 141.143H384.624V138.164H386.115C387.802 138.164 388.636 136.976 388.636 135.412C388.636 133.852 387.809 132.668 386.119 132.668H383.526V141.143ZM384.624 137.08V133.765H386.002C387.088 133.765 387.532 134.452 387.532 135.412C387.532 136.372 387.088 137.08 386.016 137.08H384.624Z" fill="black"/>
<path d="M397.74 136.906C397.74 134.195 396.348 132.552 394.466 132.552C392.577 132.552 391.188 134.195 391.188 136.906C391.188 139.612 392.577 141.259 394.466 141.259C396.348 141.259 397.74 139.616 397.74 136.906ZM396.654 136.906C396.654 138.971 395.716 140.092 394.466 140.092C393.213 140.092 392.279 138.971 392.279 136.906C392.279 134.841 393.213 133.719 394.466 133.719C395.716 133.719 396.654 134.841 396.654 136.906Z" fill="black"/>
<path d="M400.608 141.143H403.396C405.086 141.143 405.85 140.163 405.85 138.863C405.85 137.551 405.062 136.811 404.341 136.765V136.682C405.008 136.484 405.566 135.954 405.566 134.895C405.566 133.641 404.82 132.668 403.272 132.668H400.608V141.143ZM401.706 140.047V137.332H403.329C404.209 137.332 404.76 137.994 404.76 138.801C404.76 139.513 404.344 140.047 403.29 140.047H401.706ZM401.706 136.335V133.756H403.204C404.074 133.756 404.49 134.29 404.49 134.994C404.49 135.813 403.915 136.335 403.176 136.335H401.706Z" fill="black"/>
<path d="M414.969 136.906C414.969 134.195 413.577 132.552 411.695 132.552C409.805 132.552 408.417 134.195 408.417 136.906C408.417 139.612 409.805 141.259 411.695 141.259C413.577 141.259 414.969 139.616 414.969 136.906ZM413.882 136.906C413.882 138.971 412.945 140.092 411.695 140.092C410.441 140.092 409.507 138.971 409.507 136.906C409.507 134.841 410.441 133.719 411.695 133.719C412.945 133.719 413.882 134.841 413.882 136.906Z" fill="black"/>
<path d="M396.35 173.777H397.688L394.688 169.133L397.706 165.301H396.346L393.516 168.881H393.139V165.301H392.042V173.777H393.139V169.978H393.892L396.35 173.777Z" fill="black"/>
<path d="M406.256 169.539C406.256 166.828 404.864 165.186 402.982 165.186C401.093 165.186 399.704 166.828 399.704 169.539C399.704 172.246 401.093 173.893 402.982 173.893C404.864 173.893 406.256 172.25 406.256 169.539ZM405.169 169.539C405.169 171.604 404.232 172.726 402.982 172.726C401.728 172.726 400.794 171.604 400.794 169.539C400.794 167.474 401.728 166.353 402.982 166.353C404.232 166.353 405.169 167.474 405.169 169.539Z" fill="black"/>
<path d="M408.463 166.402H410.728V173.777H411.822V166.402H414.091V165.301H408.463V166.402Z" fill="black"/>
<path d="M416.835 173.777H421.437V172.676H417.932V170.081H421.157V168.985H417.932V166.402H421.395V165.301H416.835V173.777Z" fill="black"/>
<path d="M423.81 173.777H424.122C425.777 173.777 426.175 172.345 426.271 169.622L426.384 166.386H428.867V173.777H429.95V165.301H425.351L425.227 169.282C425.149 171.736 424.893 172.635 424.023 172.659L423.81 172.668V173.777Z" fill="black"/>
<path d="M434.156 168.72V165.301H433.055V173.777H435.779C437.398 173.777 438.325 172.726 438.321 171.207C438.325 169.692 437.398 168.72 435.779 168.72H434.156ZM434.156 169.796H435.779C436.72 169.796 437.238 170.425 437.238 171.19C437.238 171.977 436.72 172.701 435.779 172.701H434.156V169.796Z" fill="black"/>
<path d="M441.159 173.777H442.256V170.081H445.882V173.777H446.983V165.301H445.882V168.985H442.256V165.301H441.159V173.777Z" fill="black"/>
<path d="M450.081 165.301V173.777H451.09L454.786 167.561H454.854V173.777H455.951V165.301H454.935L451.235 171.525H451.168V165.301H450.081Z" fill="black"/>
<path d="M459.197 165.301V168.099C459.194 169.99 460.177 170.735 461.768 170.735C462.468 170.735 463.072 170.632 463.594 170.458V173.777H464.68V165.301H463.594V169.365C463.05 169.535 462.376 169.638 461.768 169.638C460.82 169.638 460.28 169.266 460.28 168.099V165.301H459.197Z" fill="black"/>
<path d="M470.995 169.005H467.77V170.077H470.995V169.005Z" fill="black"/>
<path d="M476.453 165.301H475.43C475.391 165.533 474.837 166.605 473.775 166.605V167.656C474.599 167.656 475.171 167.275 475.291 167.027H475.352V173.777H476.453V165.301Z" fill="black"/>
<path d="M528.066 210.747H523.531V219.222H524.629V211.848H528.066V210.747Z" fill="black"/>
<path d="M530.252 219.222H530.565C532.22 219.222 532.617 217.79 532.713 215.067L532.827 211.831H535.309V219.222H536.392V210.747H531.794L531.669 214.728C531.591 217.182 531.335 218.08 530.465 218.105L530.252 218.113V219.222Z" fill="black"/>
<path d="M540.105 219.222L540.772 216.979H543.613L544.277 219.222H545.442L542.825 210.747H541.557L538.94 219.222H540.105ZM541.092 215.903L542.164 212.286H542.221L543.294 215.903H541.092Z" fill="black"/>
<path d="M550.425 219.338C551.909 219.338 552.999 218.304 552.996 216.897C552.999 215.825 552.442 215.055 551.476 214.881V214.815C552.236 214.587 552.729 213.892 552.726 212.94C552.729 211.695 551.852 210.631 550.453 210.631C549.118 210.631 548.045 211.571 548.01 212.949H549.072C549.097 212.171 549.725 211.699 550.439 211.699C551.181 211.699 551.668 212.224 551.664 213.006C551.668 213.826 551.103 214.364 550.297 214.364H549.683V215.407H550.297C551.305 215.407 551.888 216.003 551.888 216.855C551.888 217.679 551.273 218.237 550.418 218.237C549.629 218.237 549.015 217.766 548.972 217.012H547.857C547.903 218.395 548.955 219.338 550.425 219.338Z" fill="black"/>
<path d="M562.255 214.985C562.255 212.274 560.863 210.631 558.981 210.631C557.092 210.631 555.703 212.274 555.703 214.985C555.703 217.691 557.092 219.338 558.981 219.338C560.863 219.338 562.255 217.695 562.255 214.985ZM561.168 214.985C561.168 217.05 560.231 218.171 558.981 218.171C557.727 218.171 556.793 217.05 556.793 214.985C556.793 212.92 557.727 211.798 558.981 211.798C560.231 211.798 561.168 212.92 561.168 214.985Z" fill="black"/>
<path d="M565.123 219.222H567.911C569.601 219.222 570.365 218.241 570.365 216.942C570.365 215.63 569.576 214.889 568.855 214.844V214.761C569.523 214.562 570.08 214.033 570.08 212.973C570.08 211.719 569.335 210.747 567.786 210.747H565.123V219.222ZM566.22 218.126V215.411H567.843C568.724 215.411 569.274 216.073 569.274 216.88C569.274 217.592 568.859 218.126 567.804 218.126H566.22ZM566.22 214.414V211.835H567.719C568.589 211.835 569.004 212.369 569.004 213.073C569.004 213.892 568.429 214.414 567.691 214.414H566.22Z" fill="black"/>
<path d="M531.297 135.609H525.687V144.085H526.78V136.702H530.204V144.085H531.297V135.609Z" fill="black"/>
<path d="M534.475 144.085H539.078V142.984H535.573V140.389H538.797V139.292H535.573V136.71H539.035V135.609H534.475V144.085Z" fill="black"/>
<path d="M542.001 144.085H543.098V141.105H544.589C546.276 141.105 547.111 139.917 547.111 138.353C547.111 136.793 546.283 135.609 544.593 135.609H542.001V144.085ZM543.098 140.021V136.706H544.476C545.562 136.706 546.006 137.393 546.006 138.353C546.006 139.313 545.562 140.021 544.49 140.021H543.098Z" fill="black"/>
<path d="M549.897 135.609V144.085H550.941V137.948H551.009L553.153 144.072H554.02L556.165 137.952H556.232V144.085H557.276V135.609H555.945L553.629 142.198H553.544L551.229 135.609H549.897Z" fill="black"/>
<path d="M561.665 139.028V135.609H560.564V144.085H563.288C564.907 144.085 565.834 143.034 565.831 141.515C565.834 140 564.907 139.028 563.288 139.028H561.665ZM561.665 140.104H563.288C564.229 140.104 564.748 140.733 564.748 141.498C564.748 142.284 564.229 143.009 563.288 143.009H561.665V140.104Z" fill="black"/>
<path d="M598.172 180.384H600.438V187.758H601.531V180.384H603.8V179.283H598.172V180.384Z" fill="black"/>
<path d="M607.642 179.283H606.544V187.758H607.642V184.158H608.916C609.115 186.484 610.429 187.874 612.166 187.874C614.048 187.874 615.44 186.231 615.44 183.52C615.44 180.81 614.048 179.167 612.166 179.167C610.379 179.167 609.041 180.636 608.899 183.086H607.642V179.283ZM614.353 183.52C614.353 185.586 613.416 186.707 612.166 186.707C610.912 186.707 609.978 185.586 609.978 183.52C609.978 181.455 610.912 180.334 612.166 180.334C613.416 180.334 614.353 181.455 614.353 183.52Z" fill="black"/>
<path d="M618.122 179.283V187.758H619.166V181.621H619.234L621.379 187.746H622.245L624.39 181.625H624.458V187.758H625.502V179.283H624.17L621.855 185.871H621.769L619.454 179.283H618.122Z" fill="black"/>
<path d="M628.782 187.758H633.385V186.657H629.88V184.063H633.104V182.966H629.88V180.384H633.342V179.283H628.782V187.758Z" fill="black"/>
<path d="M636.308 187.758H637.405V184.063H641.031V187.758H642.132V179.283H641.031V182.966H637.405V179.283H636.308V187.758Z" fill="black"/>
<path d="M646.338 182.701V179.283H645.237V187.758H647.961C649.58 187.758 650.507 186.707 650.503 185.188C650.507 183.674 649.58 182.701 647.961 182.701H646.338ZM646.338 183.777H647.961C648.902 183.777 649.42 184.406 649.42 185.172C649.42 185.958 648.902 186.682 647.961 186.682H646.338V183.777Z" fill="black"/>
<path d="M697.187 209.156C697.187 206.446 695.795 204.803 693.912 204.803C692.023 204.803 690.635 206.446 690.635 209.156C690.635 211.863 692.023 213.51 693.912 213.51C695.795 213.51 697.187 211.867 697.187 209.156ZM696.1 209.156C696.1 211.221 695.162 212.343 693.912 212.343C692.659 212.343 691.725 211.221 691.725 209.156C691.725 207.091 692.659 205.97 693.912 205.97C695.162 205.97 696.1 207.091 696.1 209.156Z" fill="black"/>
<path d="M700.055 204.919V213.394H701.099V207.257H701.166L703.311 213.381H704.178L706.322 207.261H706.39V213.394H707.434V204.919H706.102L703.787 211.507H703.702L701.386 204.919H700.055Z" fill="black"/>
<path d="M716.755 207.675C716.507 205.862 715.289 204.803 713.751 204.803C711.869 204.803 710.48 206.446 710.48 209.156C710.48 211.867 711.862 213.51 713.751 213.51C715.349 213.51 716.517 212.343 716.755 210.667L715.647 210.663C715.459 211.747 714.678 212.343 713.758 212.343C712.512 212.343 711.571 211.23 711.571 209.156C711.571 207.099 712.508 205.97 713.762 205.97C714.689 205.97 715.466 206.578 715.647 207.675H716.755Z" fill="black"/>
<path d="M723.876 213.394H725.215L722.214 208.751L725.232 204.919H723.872L721.042 208.498H720.666V204.919H719.568V213.394H720.666V209.595H721.419L723.876 213.394Z" fill="black"/>
<path d="M805.111 121.333H806.45L803.449 116.69L806.468 112.858H805.108L802.277 116.438H801.901V112.858H800.804V121.333H801.901V117.534H802.654L805.111 121.333Z" fill="black"/>
<path d="M809.062 121.333H810.159V118.354H811.65C813.337 118.354 814.172 117.166 814.172 115.602C814.172 114.042 813.344 112.858 811.654 112.858H809.062V121.333ZM810.159 117.269V113.955H811.537C812.623 113.955 813.067 114.642 813.067 115.602C813.067 116.562 812.623 117.269 811.551 117.269H810.159Z" fill="black"/>
<path d="M816.801 121.333L817.468 119.09H820.309L820.973 121.333H822.138L819.521 112.858H818.253L815.636 121.333H816.801ZM817.788 118.014L818.861 114.398H818.917L819.99 118.014H817.788Z" fill="black"/>
<path d="M830.387 115.614C830.139 113.802 828.921 112.742 827.383 112.742C825.501 112.742 824.112 114.385 824.112 117.096C824.112 119.806 825.494 121.449 827.383 121.449C828.981 121.449 830.149 120.282 830.387 118.606L829.279 118.602C829.091 119.686 828.31 120.282 827.39 120.282C826.144 120.282 825.203 119.169 825.203 117.096C825.203 115.039 826.14 113.909 827.394 113.909C828.32 113.909 829.098 114.518 829.279 115.614H830.387Z" fill="black"/>
<path d="M833.2 121.333H834.297V117.638H837.923V121.333H839.024V112.858H837.923V116.541H834.297V112.858H833.2V121.333Z" fill="black"/>
<path d="M848.44 117.096C848.44 114.385 847.047 112.742 845.165 112.742C843.276 112.742 841.888 114.385 841.888 117.096C841.888 119.802 843.276 121.449 845.165 121.449C847.047 121.449 848.44 119.806 848.44 117.096ZM847.353 117.096C847.353 119.161 846.415 120.282 845.165 120.282C843.912 120.282 842.978 119.161 842.978 117.096C842.978 115.031 843.912 113.909 845.165 113.909C846.415 113.909 847.353 115.031 847.353 117.096Z" fill="black"/>
<path d="M856.158 121.333V112.858H853.566C851.879 112.858 851.048 113.955 851.048 115.515C851.048 116.653 851.492 117.518 852.384 117.903L850.771 121.333H852.021L853.499 118.126C853.524 118.126 853.545 118.126 853.57 118.126H855.061V121.333H856.158ZM855.061 117.025H853.669C852.6 117.025 852.153 116.471 852.153 115.515C852.153 114.555 852.6 113.955 853.683 113.955H855.061V117.025Z" fill="black"/>
<path d="M859.253 121.333H860.35V118.354H861.842C863.529 118.354 864.363 117.166 864.363 115.602C864.363 114.042 863.536 112.858 861.845 112.858H859.253V121.333ZM860.35 117.269V113.955H861.728C862.815 113.955 863.259 114.642 863.259 115.602C863.259 116.562 862.815 117.269 861.742 117.269H860.35Z" fill="black"/>
<path d="M873.19 115.614C872.941 113.802 871.723 112.742 870.186 112.742C868.304 112.742 866.915 114.385 866.915 117.096C866.915 119.806 868.296 121.449 870.186 121.449C871.784 121.449 872.952 120.282 873.19 118.606L872.082 118.602C871.894 119.686 871.112 120.282 870.193 120.282C868.946 120.282 868.005 119.169 868.005 117.096C868.005 115.039 868.943 113.909 870.196 113.909C871.123 113.909 871.901 114.518 872.082 115.614H873.19Z" fill="black"/>
<path d="M880.31 121.333H881.649L878.649 116.69L881.667 112.858H880.307L877.477 116.438H877.1V112.858H876.003V121.333H877.1V117.534H877.853L880.31 121.333Z" fill="black"/>
<path d="M875.625 187.874H876.122C877.258 187.874 877.635 187.133 877.954 186.289L880.469 179.283H879.318L877.621 184.183L875.714 179.283H874.549L877.106 185.643L877.003 185.946C876.846 186.388 876.605 186.748 876.062 186.748H875.625V187.874Z" fill="black"/>
<path d="M882.456 187.758H882.768C884.423 187.758 884.821 186.326 884.917 183.603L885.031 180.367H887.513V187.758H888.596V179.283H883.997L883.873 183.264C883.795 185.718 883.539 186.616 882.669 186.641L882.456 186.649V187.758Z" fill="black"/>
<path d="M892.308 187.758L892.976 185.515H895.817L896.481 187.758H897.646L895.028 179.283H893.761L891.143 187.758H892.308ZM893.295 184.439L894.368 180.822H894.425L895.497 184.439H893.295Z" fill="black"/>
<path d="M900.196 187.758H901.293V184.063H904.919V187.758H906.02V179.283H904.919V182.966H901.293V179.283H900.196V187.758Z" fill="black"/>
<path d="M912.246 182.987H909.022V184.058H912.246V182.987Z" fill="black"/>
<path d="M915.127 187.874H915.624C916.76 187.874 917.137 187.133 917.456 186.289L919.971 179.283H918.82L917.123 184.183L915.216 179.283H914.051L916.608 185.643L916.505 185.946C916.348 186.388 916.107 186.748 915.564 186.748H915.127V187.874Z" fill="black"/>
<path d="M921.958 189.807H923.009V187.758H927.892V189.794H928.943V186.674H928.119V179.283H923.634L923.464 182.863C923.354 185.221 922.924 186.194 922.437 186.674H921.958V189.807ZM923.73 186.674C924.145 185.9 924.426 184.654 924.515 182.863L924.628 180.384H927.068V186.674H923.73Z" fill="black"/>
<path d="M931.414 185.068C931.553 186.674 932.455 187.874 934.209 187.874C935.963 187.874 937.085 186.347 937.085 183.972V183.09C937.085 180.715 935.949 179.167 934.149 179.167C932.437 179.167 931.553 180.384 931.411 182.022H932.529C932.643 180.922 933.087 180.268 934.149 180.268C935.317 180.268 935.97 181.369 935.974 183.082H933.293V184.166H935.97C935.924 185.66 935.363 186.79 934.209 186.79C933.119 186.79 932.654 186.186 932.529 185.068H931.414Z" fill="black"/>
<path d="M106.476 38.9853C106.476 41.2333 104.912 43.0557 102.983 43.0557C101.054 43.0557 99.4902 41.2333 99.4902 38.9853C99.4902 36.7372 101.054 34.9148 102.983 34.9148C104.912 34.9148 106.476 36.7372 106.476 38.9853Z" fill="#272722"/>
<path fill-rule="evenodd" clip-rule="evenodd" d="M102.983 41.8904C104.36 41.8904 105.476 40.5897 105.476 38.9853C105.476 37.3808 104.36 36.0801 102.983 36.0801C101.606 36.0801 100.49 37.3808 100.49 38.9853C100.49 40.5897 101.606 41.8904 102.983 41.8904ZM102.983 43.0557C104.912 43.0557 106.476 41.2333 106.476 38.9853C106.476 36.7372 104.912 34.9148 102.983 34.9148C101.054 34.9148 99.4902 36.7372 99.4902 38.9853C99.4902 41.2333 101.054 43.0557 102.983 43.0557Z" fill="black"/>
<path d="M20.7153 133.562C20.7153 135.81 19.1515 137.633 17.2224 137.633C15.2933 137.633 13.7295 135.81 13.7295 133.562C13.7295 131.314 15.2933 129.492 17.2224 129.492C19.1515 129.492 20.7153 131.314 20.7153 133.562Z" fill="#131313"/>
<path fill-rule="evenodd" clip-rule="evenodd" d="M17.2224 136.468C18.5992 136.468 19.7153 135.167 19.7153 133.562C19.7153 131.958 18.5992 130.657 17.2224 130.657C15.8456 130.657 14.7295 131.958 14.7295 133.562C14.7295 135.167 15.8456 136.468 17.2224 136.468ZM17.2224 137.633C19.1515 137.633 20.7153 135.81 20.7153 133.562C20.7153 131.314 19.1515 129.492 17.2224 129.492C15.2933 129.492 13.7295 131.314 13.7295 133.562C13.7295 135.81 15.2933 137.633 17.2224 137.633Z" fill="black"/>
<path d="M214.752 181.451C214.752 183.699 213.189 185.521 211.26 185.521C209.33 185.521 207.767 183.699 207.767 181.451C207.767 179.203 209.33 177.38 211.26 177.38C213.189 177.38 214.752 179.203 214.752 181.451Z" fill="#4D5648"/>
<path fill-rule="evenodd" clip-rule="evenodd" d="M211.26 184.356C212.636 184.356 213.752 183.055 213.752 181.451C213.752 179.846 212.636 178.546 211.26 178.546C209.883 178.546 208.767 179.846 208.767 181.451C208.767 183.055 209.883 184.356 211.26 184.356ZM211.26 185.521C213.189 185.521 214.752 183.699 214.752 181.451C214.752 179.203 213.189 177.38 211.26 177.38C209.33 177.38 207.767 179.203 207.767 181.451C207.767 183.699 209.33 185.521 211.26 185.521Z" fill="black"/>
<path d="M247.064 206.894C247.064 209.142 245.5 210.964 243.571 210.964C241.642 210.964 240.078 209.142 240.078 206.894C240.078 204.646 241.642 202.823 243.571 202.823C245.5 202.823 247.064 204.646 247.064 206.894Z" fill="#47443E"/>
<path fill-rule="evenodd" clip-rule="evenodd" d="M243.571 209.799C244.948 209.799 246.064 208.498 246.064 206.894C246.064 205.289 244.948 203.989 243.571 203.989C242.194 203.989 241.078 205.289 241.078 206.894C241.078 208.498 242.194 209.799 243.571 209.799ZM243.571 210.964C245.5 210.964 247.064 209.142 247.064 206.894C247.064 204.646 245.5 202.823 243.571 202.823C241.642 202.823 240.078 204.646 240.078 206.894C240.078 209.142 241.642 210.964 243.571 210.964Z" fill="black"/>
<path d="M335.26 147.871C335.26 150.12 333.696 151.942 331.767 151.942C329.838 151.942 328.274 150.12 328.274 147.871C328.274 145.623 329.838 143.801 331.767 143.801C333.696 143.801 335.26 145.623 335.26 147.871Z" fill="#93A47C"/>
<path fill-rule="evenodd" clip-rule="evenodd" d="M331.767 150.777C333.144 150.777 334.26 149.476 334.26 147.871C334.26 146.267 333.144 144.966 331.767 144.966C330.391 144.966 329.274 146.267 329.274 147.871C329.274 149.476 330.391 150.777 331.767 150.777ZM331.767 151.942C333.696 151.942 335.26 150.12 335.26 147.871C335.26 145.623 333.696 143.801 331.767 143.801C329.838 143.801 328.274 145.623 328.274 147.871C328.274 150.12 329.838 151.942 331.767 151.942Z" fill="black"/>
<path d="M412.979 187.559C412.979 189.807 411.415 191.629 409.486 191.629C407.557 191.629 405.993 189.807 405.993 187.559C405.993 185.311 407.557 183.488 409.486 183.488C411.415 183.488 412.979 185.311 412.979 187.559Z" fill="#738F8C"/>
<path fill-rule="evenodd" clip-rule="evenodd" d="M409.486 190.464C410.863 190.464 411.979 189.163 411.979 187.559C411.979 185.954 410.863 184.654 409.486 184.654C408.109 184.654 406.993 185.954 406.993 187.559C406.993 189.163 408.109 190.464 409.486 190.464ZM409.486 191.629C411.415 191.629 412.979 189.807 412.979 187.559C412.979 185.311 411.415 183.488 409.486 183.488C407.557 183.488 405.993 185.311 405.993 187.559C405.993 189.807 407.557 191.629 409.486 191.629Z" fill="black"/>
<path d="M515.144 215.036C515.144 217.284 513.58 219.106 511.651 219.106C509.722 219.106 508.158 217.284 508.158 215.036C508.158 212.787 509.722 210.965 511.651 210.965C513.58 210.965 515.144 212.787 515.144 215.036Z" fill="#789186"/>
<path fill-rule="evenodd" clip-rule="evenodd" d="M511.651 217.941C513.028 217.941 514.144 216.64 514.144 215.036C514.144 213.431 513.028 212.13 511.651 212.13C510.274 212.13 509.158 213.431 509.158 215.036C509.158 216.64 510.274 217.941 511.651 217.941ZM511.651 219.106C513.58 219.106 515.144 217.284 515.144 215.036C515.144 212.787 513.58 210.965 511.651 210.965C509.722 210.965 508.158 212.787 508.158 215.036C508.158 217.284 509.722 219.106 511.651 219.106Z" fill="black"/>
<path d="M548.327 154.998C548.327 157.246 546.763 159.068 544.834 159.068C542.905 159.068 541.341 157.246 541.341 154.998C541.341 152.75 542.905 150.927 544.834 150.927C546.763 150.927 548.327 152.75 548.327 154.998Z" fill="#8CBABB"/>
<path fill-rule="evenodd" clip-rule="evenodd" d="M544.834 157.903C546.211 157.903 547.327 156.602 547.327 154.998C547.327 153.393 546.211 152.093 544.834 152.093C543.457 152.093 542.341 153.393 542.341 154.998C542.341 156.602 543.457 157.903 544.834 157.903ZM544.834 159.068C546.763 159.068 548.327 157.246 548.327 154.998C548.327 152.75 546.763 150.927 544.834 150.927C542.905 150.927 541.341 152.75 541.341 154.998C541.341 157.246 542.905 159.068 544.834 159.068Z" fill="black"/>
<path d="M605.085 200.79C605.085 203.038 603.522 204.86 601.593 204.86C599.663 204.86 598.1 203.038 598.1 200.79C598.1 198.542 599.663 196.719 601.593 196.719C603.522 196.719 605.085 198.542 605.085 200.79Z" fill="#414847"/>
<path fill-rule="evenodd" clip-rule="evenodd" d="M601.593 203.695C602.969 203.695 604.085 202.394 604.085 200.79C604.085 199.185 602.969 197.885 601.593 197.885C600.216 197.885 599.1 199.185 599.1 200.79C599.1 202.394 600.216 203.695 601.593 203.695ZM601.593 204.86C603.522 204.86 605.085 203.038 605.085 200.79C605.085 198.542 603.522 196.719 601.593 196.719C599.663 196.719 598.1 198.542 598.1 200.79C598.1 203.038 599.663 204.86 601.593 204.86Z" fill="black"/>
<path d="M710.749 185.523C710.749 187.771 709.186 189.593 707.257 189.593C705.328 189.593 703.764 187.771 703.764 185.523C703.764 183.275 705.328 181.452 707.257 181.452C709.186 181.452 710.749 183.275 710.749 185.523Z" fill="#577379"/>
<path fill-rule="evenodd" clip-rule="evenodd" d="M707.257 188.428C708.633 188.428 709.749 187.127 709.749 185.523C709.749 183.918 708.633 182.617 707.257 182.617C705.88 182.617 704.764 183.918 704.764 185.523C704.764 187.127 705.88 188.428 707.257 188.428ZM707.257 189.593C709.186 189.593 710.749 187.771 710.749 185.523C710.749 183.275 709.186 181.452 707.257 181.452C705.328 181.452 703.764 183.275 703.764 185.523C703.764 187.771 705.328 189.593 707.257 189.593Z" fill="black"/>
<path d="M845.679 130.572C845.679 132.82 844.115 134.642 842.186 134.642C840.257 134.642 838.693 132.82 838.693 130.572C838.693 128.324 840.257 126.501 842.186 126.501C844.115 126.501 845.679 128.324 845.679 130.572Z" fill="#3E403A"/>
<path fill-rule="evenodd" clip-rule="evenodd" d="M842.186 133.477C843.563 133.477 844.679 132.176 844.679 130.572C844.679 128.967 843.563 127.667 842.186 127.667C840.809 127.667 839.693 128.967 839.693 130.572C839.693 132.176 840.809 133.477 842.186 133.477ZM842.186 134.642C844.115 134.642 845.679 132.82 845.679 130.572C845.679 128.324 844.115 126.501 842.186 126.501C840.257 126.501 838.693 128.324 838.693 130.572C838.693 132.82 840.257 134.642 842.186 134.642Z" fill="black"/>
<path d="M908.718 162.694C908.718 164.943 907.154 166.765 905.225 166.765C903.296 166.765 901.732 164.943 901.732 162.694C901.732 160.446 903.296 158.624 905.225 158.624C907.154 158.624 908.718 160.446 908.718 162.694Z" fill="#181A19"/>
<path fill-rule="evenodd" clip-rule="evenodd" d="M905.225 165.6C906.602 165.6 907.718 164.299 907.718 162.694C907.718 161.09 906.602 159.789 905.225 159.789C903.849 159.789 902.732 161.09 902.732 162.694C902.732 164.299 903.849 165.6 905.225 165.6ZM905.225 166.765C907.154 166.765 908.718 164.943 908.718 162.694C908.718 160.446 907.154 158.624 905.225 158.624C903.296 158.624 901.732 160.446 901.732 162.694C901.732 164.943 903.296 166.765 905.225 166.765Z" fill="black"/>
</svg>
